<svg id="visual" viewBox="0 0 900 600" width="900" height="600" xmlns="http://www.w3.org/2000/svg" xmlns:xlink="http://www.w3.org/1999/xlink" version="1.1"><rect x="0" y="0" width="900" height="600" fill="#FFFFFF"></rect><path d="M0 139L21.5 143.7C43 148.3 86 157.7 128.8 159C171.7 160.3 214.3 153.7 257.2 147.7C300 141.7 343 136.3 385.8 142.2C428.7 148 471.3 165 514.2 165.2C557 165.3 600 148.7 642.8 139.2C685.7 129.7 728.3 127.3 771.2 124.5C814 121.7 857 118.3 878.5 116.7L900 115L900 0L878.5 0C857 0 814 0 771.2 0C728.3 0 685.7 0 642.8 0C600 0 557 0 514.2 0C471.3 0 428.7 0 385.8 0C343 0 300 0 257.2 0C214.3 0 171.7 0 128.8 0C86 0 43 0 21.5 0L0 0Z" fill="#03c988"></path><path d="M0 85L21.5 82C43 79 86 73 128.8 65.5C171.7 58 214.3 49 257.2 44.5C300 40 343 40 385.8 52.7C428.7 65.3 471.3 90.7 514.2 101.5C557 112.3 600 108.7 642.8 101.8C685.7 95 728.3 85 771.2 85C814 85 857 95 878.5 100L900 105L900 0L878.5 0C857 0 814 0 771.2 0C728.3 0 685.7 0 642.8 0C600 0 557 0 514.2 0C471.3 0 428.7 0 385.8 0C343 0 300 0 257.2 0C214.3 0 171.7 0 128.8 0C86 0 43 0 21.5 0L0 0Z" fill="#13005a"></path></svg>